<svg width="230" height="162" viewBox="0 0 230 162" fill="none" xmlns="http://www.w3.org/2000/svg">
<ellipse cx="121" cy="140" rx="89" ry="22" fill="white" fill-opacity="0.2"/>
<path d="M186.57 11.4267C185.558 11.4279 184.586 11.8148 183.85 12.5086C183.114 13.2023 182.671 14.1506 182.611 15.1599L154.094 25.2658C153.723 24.8617 153.272 24.539 152.77 24.3179C152.267 24.0969 151.725 23.9825 151.176 23.9817C150.123 23.9818 149.113 24.4002 148.369 25.1448C147.624 25.8895 147.206 26.8994 147.206 27.9525C147.207 28.9048 147.551 29.8248 148.175 30.5448L131.182 56.1065C130.929 56.0563 130.673 56.0309 130.415 56.0306C129.894 56.0305 129.377 56.1332 128.895 56.3328C128.414 56.5323 127.976 56.8248 127.607 57.1935C127.238 57.5623 126.946 58 126.746 58.4818C126.547 58.9636 126.444 59.4799 126.444 60.0014C126.444 60.5228 126.547 61.0392 126.746 61.5209C126.946 62.0027 127.238 62.4404 127.607 62.8091C127.976 63.1778 128.414 63.4703 128.895 63.6698C129.377 63.8694 129.894 63.9721 130.415 63.9721C130.56 63.9705 130.706 63.9609 130.85 63.9435L140.373 86.5792C139.806 86.937 139.339 87.4323 139.016 88.0191C138.692 88.6059 138.522 89.2651 138.522 89.9352C138.522 90.5821 138.68 91.2192 138.982 91.7911C139.285 92.363 139.722 92.8524 140.257 93.2166C138.982 95.5664 119.615 128.477 122.017 142.975C122.118 143.587 124.422 144.231 124.678 143.666C130.887 129.958 135.606 106.061 141.722 93.8297C141.976 93.8801 142.234 93.9056 142.492 93.9059C143.192 93.9053 143.879 93.7198 144.484 93.3683C145.089 93.0168 145.59 92.5117 145.937 91.9041L172.823 101.305C173.007 102.2 173.493 103.004 174.201 103.581C174.909 104.159 175.794 104.475 176.707 104.476C177.229 104.476 177.745 104.374 178.227 104.174C178.709 103.975 179.147 103.682 179.515 103.313C179.884 102.945 180.176 102.507 180.376 102.025C180.576 101.543 180.678 101.027 180.678 100.505C180.677 100.083 180.607 99.6633 180.473 99.2625L202.571 78.027C203.162 78.357 203.827 78.5304 204.504 78.5309C205.557 78.5309 206.567 78.1126 207.312 77.3681C208.056 76.6235 208.475 75.6136 208.475 74.5605C208.474 73.9435 208.329 73.3351 208.052 72.7838C207.775 72.2325 207.373 71.7533 206.878 71.3843L215.274 43.9168C215.398 43.9288 215.523 43.9349 215.647 43.9353C216.168 43.9353 216.685 43.8326 217.167 43.6331C217.648 43.4335 218.086 43.141 218.455 42.7723C218.824 42.4036 219.116 41.9658 219.316 41.4841C219.515 41.0023 219.618 40.486 219.618 39.9645C219.617 39.311 219.456 38.6678 219.147 38.0918C218.838 37.5158 218.392 37.0249 217.848 36.6627L225.054 20.8998C225.102 20.9031 225.15 20.9055 225.198 20.907C225.719 20.907 226.236 20.8043 226.718 20.6048C227.199 20.4052 227.637 20.1128 228.006 19.744C228.375 19.3753 228.667 18.9376 228.867 18.4558C229.066 17.974 229.169 17.4577 229.169 16.9362C229.168 15.9328 228.787 14.967 228.102 14.2331V14.2299V14.2315C227.731 13.8326 227.282 13.5144 226.782 13.2966C226.283 13.0788 225.744 12.9661 225.199 12.9655C224.434 12.9662 223.686 13.1879 223.044 13.604C222.402 14.0201 221.893 14.6128 221.58 15.3108L190.246 13.902C189.949 13.1708 189.441 12.5449 188.786 12.1039C188.131 11.663 187.36 11.4272 186.571 11.4266L186.57 11.4267ZM190.535 15.5055L221.23 16.8851C221.23 16.9021 221.23 16.9191 221.23 16.936C221.23 17.4309 221.323 17.9213 221.503 18.3822L205.114 28.6879L190.379 16.5154C190.475 16.187 190.528 15.8475 190.537 15.5055H190.535ZM182.844 16.7616C183.038 17.29 183.342 17.7712 183.736 18.1732C184.13 18.5752 184.605 18.8888 185.129 19.0933L181.402 40.2468C181.155 40.1985 180.903 40.1739 180.651 40.1733C180.109 40.1743 179.573 40.2862 179.076 40.502C178.579 40.7179 178.131 41.0333 177.76 41.4287L155.131 28.2631C155.141 28.1598 155.146 28.0562 155.147 27.9525C155.146 27.5111 155.07 27.0731 154.925 26.6565L182.844 16.7616ZM189.614 17.9447L203.696 29.578L194.033 35.6539L188.828 18.6571C189.121 18.4559 189.385 18.2163 189.614 17.9447ZM187.36 19.2842L192.641 36.5297L183.977 41.9774C183.694 41.5435 183.33 41.1691 182.904 40.8751L186.694 19.3634C186.918 19.3558 187.141 19.3293 187.36 19.2842ZM222.364 19.7159C222.688 20.0447 223.068 20.3144 223.485 20.5128L216.375 36.0643C216.135 36.0186 215.891 35.995 215.647 35.9941C215.173 35.9949 214.704 36.0804 214.261 36.2465L206.401 29.7536L222.364 19.7159ZM154.672 29.8332L176.927 42.7801C176.765 43.2166 176.682 43.6782 176.68 44.1437C176.682 44.4433 176.717 44.7418 176.786 45.0334L160.011 49.9214L153.649 31.059C154.069 30.7239 154.417 30.3069 154.672 29.8332ZM204.986 30.6437L212.855 37.144C212.482 37.513 212.185 37.9522 211.983 38.4363C211.781 38.9204 211.676 39.4398 211.676 39.9645C211.678 40.9357 212.036 41.8725 212.681 42.5978L201.599 60.3621L194.515 37.2281L204.986 30.6437ZM149.437 31.5162C149.616 31.6053 149.802 31.6807 149.993 31.7418L146.907 53.7399L133.588 57.6207C133.332 57.2781 133.023 56.9791 132.671 56.7352L149.437 31.5162ZM152.218 31.7833L158.485 50.3662L148.58 53.2524L151.576 31.8986C151.793 31.8778 152.007 31.8393 152.218 31.7833ZM193.122 38.1035L200.484 62.148L198.669 65.0571L183.941 46.3651C184.384 45.7091 184.621 44.9355 184.621 44.1437C184.621 43.9227 184.602 43.7021 184.565 43.4842L193.122 38.1035ZM213.499 44.2882L205.426 70.703C205.199 70.6488 204.967 70.6148 204.734 70.6013L202.215 62.3753L213.499 44.2882ZM177.455 46.4927C177.644 46.7523 177.865 46.9878 178.111 47.1944L164.472 63.1456L160.519 51.4274L177.455 46.4927ZM182.8 47.4821L197.776 66.4893L178.695 97.0728C178.443 96.9255 178.175 96.8066 177.896 96.7182L181.974 47.883C182.264 47.7818 182.541 47.6473 182.8 47.4821ZM179.549 47.9553C179.814 48.0317 180.087 48.0803 180.363 48.1001L176.317 96.5585C176.134 96.5766 175.952 96.6074 175.773 96.6508L165.063 64.8979L179.549 47.9553ZM158.993 51.8719L163.27 64.5511L144.494 86.5102C144.319 86.4082 144.138 86.3197 143.95 86.2454L148.338 54.9763L158.993 51.8719ZM146.665 55.4639L142.386 85.9685C142.209 85.9732 142.034 85.9896 141.86 86.0176L132.367 63.4538C132.979 63.1084 133.488 62.6069 133.843 62.0004C134.197 61.394 134.385 60.7043 134.386 60.0017C134.384 59.6896 134.346 59.3787 134.271 59.0755L146.665 55.4639ZM201.101 64.1613L203.095 70.6735L199.715 66.3835L201.101 64.1613ZM163.861 66.3038L174.327 97.333C173.575 97.8976 173.047 98.7107 172.839 99.6277L146.434 90.3948C146.453 90.2423 146.462 90.0888 146.463 89.9351C146.462 89.0831 146.186 88.2543 145.677 87.571L163.861 66.3038ZM198.821 67.8152L201.828 71.6325C201.421 72.004 201.096 72.4561 200.873 72.9602C200.65 73.4643 200.535 74.0093 200.534 74.5605C200.535 75.4383 200.826 76.291 201.363 76.9854L180.729 96.8138L198.821 67.8152Z" fill="white"/>
<path d="M122.872 130.73C119.75 114.207 112.539 97.9833 102.272 84.3432C112.173 64.6275 106.686 38.314 92.6712 22.0413C72.3015 -1.61504 33.7299 1.02578 5.47479 0.00154114C3.87467 -0.0560468 2.9944 1.51117 3.09724 2.87682C0.987049 3.22235 -0.90924 5.48062 0.468757 7.91988C10.3369 25.3608 19.3658 42.6454 26.0954 61.5795C30.6366 74.3517 34.6266 88.1728 45.0542 97.5966C61.4955 112.454 86.4352 107.477 98.9318 89.9703C99.7051 91.0234 100.511 92.0065 101.256 93.1171C114.756 113.285 115.423 120.037 118.656 142.975C118.726 146.525 124.473 146.328 124.876 142.975C124.17 138.029 123.674 132.654 122.872 130.73ZM90.2977 89.341C76.308 104.19 54.2148 100.369 43.1743 84.3144C36.7738 75.0057 34.0754 63.3894 30.1389 52.9207C23.8495 36.1997 15.3552 20.5769 6.64712 5.01992C26.988 7.52499 49.7352 6.49252 68.7598 13.8432C92.1323 22.8763 107.821 54.5085 97.4427 78.4034C85.7688 65.0265 70.9111 54.8499 53.8939 50.6254C52.5612 50.2964 51.7632 52.1268 52.9602 52.8467C68.5336 62.2418 82.7413 70.8553 94.3371 84.1992C93.1565 85.9803 91.8402 87.7038 90.2977 89.341Z" fill="white"/>
</svg>
